@startuml

PlayableCharacters "1" *-left- "1" Kael_Draven: contains
PlayableCharacters "1" *-left- "1" Cintya_Eaglevision: contains
PlayableCharacters "1" *-left- "1" Jax_Blacksword: contains
PlayableCharacters "1" *-left- "1" Lina_Fireheart: contains
PlayableCharacters "1" *-left- "1" Alessandra_The_Brilliant: contains
PlayableCharacters "1" *-up- "1" Sirael_The_S: contains
PlayableCharacters "1" *-up- "1" Lyrasa_Velith: contains
PlayableCharacters "1" *-up- "1" Xaviru_Palast: contains
PlayableCharacters "1" *-up- "1" Heloro_Maeg: contains
PlayableCharacters "1" *-up- "1" Lyffa_Shartis: contains
PlayableCharacters "1" *-right- "1" Hobgrou: contains
PlayableCharacters "1" *-right- "1" Groshta: contains
PlayableCharacters "1" *-right- "1" Globius: contains
PlayableCharacters "1" *-right- "1" Hobag: contains
PlayableCharacters "1" *-right- "1" Higlob: contains
PlayableCharacters "1" *-down- "1" Drekker_The_Blade: contains
PlayableCharacters "1" *-down- "1" Grisha_The_Stalker: contains
PlayableCharacters "1" *-down- "1" Zorak_The_Skinner: contains
PlayableCharacters "1" *-down- "1" Goldan_The_Vile: contains
PlayableCharacters "1" *-down- "1" Gortona_Sewwounds: contains
PlayableCharacters "1" *-down- "1" Azeli: contains
PlayableCharacters "1" *-down- "1" Shira_WhiteEdge: contains


PlayableEnemy "1" *-down-- "1" Kilian_Gladus: contains
PlayableEnemy "1" *-down-- "1" Kasano_Gladus: contains
PlayableEnemy "1" *-down-- "1" Aderit_Chantris: contains
PlayableEnemy "1" *-down-- "1" Legionary: contains
PlayableEnemy "1" *-down-- "1" Elven_Sword: contains
PlayableEnemy "1" *-down-- "1" Tiran_Morgoth: contains


PlayableEnemy "1" *-down-- "1...*" spectral_wolf: contains
PlayableEnemy "1" *-down-- "1...*" stone_guardian: contains
PlayableEnemy "1" *-down-- "1...*" void_howler: contains


Consumables "1" *-down- "0...*" shard_of_Aether: contains
Consumables "1" *-down- "0...*" vitality_potion: contains
Consumables "1" *-down- "0...*" tournament_chest: contains

Lands "1" *-down- "1" forest: contains
Lands "1" *-down- "1" river: contains
Lands "1" *-down- "1" mountains: contains
Lands "1" *-down- "1" ruins: contains

Dangers "1" *-- "0...*" ether_storm: contains
Dangers "1" *-- "0...*" shadow_pit: contains

Game "1" *-- "1" PlayableCharacters: contains
Game "1" *-- "1" PlayableEnemy: contains
Game "1" *-- "1" Consumables: contains
Game "1" *-- "1" Lands: contains
Game "1" *-- "1" Dangers: contains

class Game {

    + start_game(): void
    + end_game(): void
    + next_turn(): void
    + check_victory_conditions(): boolean
    + check_defeat_conditions(): boolean
    + spawn_enemies(): void
    + spawn_items(): void
    + trigger_event(): void
    + spawn_bosses(): void

}
class PlayableCharacters {
    -name:String
    -maxHealth:int
    -currentHealth:int
    -attack:int
    -defense:int
    -movement:int
    -Position position
    -role:String
    -abilities: List<abilities>
    -inventory: List<Item>
    -equippedWeapon:Weapon
    +Character()
    +Character(name: String, health: int, attack: int, defense: int, movement: int, position: Position, role: Role)
    +move(newPosition: Position) : void
    +attack(target: Character) : void
    +receiveDamage(damage: int) : void
    +useAbility(ability: Ability, target: Character) : void
    +addItem(item: Item) : void
    +equipWeapon(weapon: Weapon) : void
    +isAlive() : boolean
    +performAction(action: Action) : void
    }

    class Consumables {
        +effect: int
        fountain: List<PlayableEnemy>
    }

    class PlayableEnemy{
    -race: String
    -type: String
    -role: String
    -personality: String
    -health: int
    -manna: int
    -attack: int
    -defense: int
    -movement: int
    +SpecialAbilities: String


    }


class Lands{
    -position: int
    -effect: int
}

class Dangers{
    -position: int
    -range: int
    -effect: int
    -duration: int
    -movement: int
}


class Kael_Draven{
-race:human
-type:warrior
-role:tank
-personality:brave,loyal and impulsive
-health:10
-attack:3
-defense:4
-movement:2
-SpecialAbilities:firm guard
}
class Cintya_Eaglevision{
-race:human
-type:archer
-role:sniper
-personality:stubborn,famous and sincere
-health:10
-attack:5
-defense:2
-movement:3
-SpecialAbilities:immobilize
}
class Jax_Blacksword{
-race:human
-type:berserker
-role:barbarian
-personality:scoundrel and grumpy
-health:8
-attack:6
-defense:2
-movement:2
-SpecialAbilities:heavy blow
}
class Lina_Fireheart{
-race:human
-type:magician
-role:pyromancer
-personality:energetic,fair and passionate
-health:6
-manna:10
-attack:5
-defense:1
-movement:3
-SpecialAbilities:hell
}
class Alessandra_The_Brilliant{
-race:human
-type:healer
-role:priestess
-personality:flirtatious,kind and outgoing
-health:6
-manna:15
-attack:2
-defense:1
-movement:3
-SpecialAbilities:healing light
}
class Sirael_The_S{
-race:elf
-type:warrior
-role:swordman
-personality:serious,honorable and tireless
-health:10
-attack:5
-defense:3
-movement:4
-SpecialAbilities:incapacitating edge
}
class Lyrasa_Velith{
-race:elf
-type:archer
-role:skirmish
-personality:silent, precise and distrustful
-health:6
-attack:5
-defense:2
-movement:3
-SpecialAbilities:accurate shot
}
class Xaviru_Palast{
-race:elf
-type:berserker
-role:containment
-personality:resentful, serious and of few words
-health:8
-attack:6
-defense:2
-movement:3
-SpecialAbilities:magic extension
}
class Heloro_Maeg{
-race:elf
-type:magician
-role:hydromagus
-personality:wise, concerned and fair
-health:7
-manna:10
-attack:5
-defense:2
-movement:4
-SpecialAbilities:polar aura
}
class Lyffa_Shartis{
-race:elf
-type:healer
-role:apprentice
-personality:princess,perverted and sadistic
-health:6
-manna:12
-attack:5
-defense:1
-movement:3
-SpecialAbilities:healing breeze
}
class Hobgrou{
-race:goblin
-type:warrior
-role:spearman
-personality:brave, tenacious and reserved
-health:8
-attack:3
-defense:2
-movement:3
-SpecialAbilities:sharp tip
}
class Groshta{
-race:goblin
-type:archer
-role:trapper
-personality:scoundrel,cunning and gluttonous
-health:7
-attack:4
-defense:1
-movement:4
-SpecialAbilities:grid
}
class Globius{
-race:goblin
-type:berserker
-role:shadow
-personality:prince,rude and irascible
-health:7
-attack:5
-defense:1
-movement:3
-SpecialAbilities:melted into the shadows
}
class Hobag{
-race:goblin
-type:magician
-role:drainer
-personality:jealous,brave and unfriendly
-health:7
-manna:8
-attack:3
-defense:0
-movement:3
SpecialAbilities:draining magic
}
class Higlob{
-race:goblin
-type:healer
-role:quack
-personality:distracted,flattering and innocent
-health:7
-manna:15
-attack:2
-defense:1
-movement:4
-SpecialAbilities:nature's help
}
class Drekker_The_Blade{
-race:orc
-type:warrior
-role:sword master
-personality:experienced,strong and calm
-health:10
-attack:5
-defense:2
-movement:3
-SpecialAbilities:hellish scream
}
class Grisha_The_Stalker{
-race:orc
-type:archer
-role:huntress
-personality:sadistic,ruthless and rude
-health:7
-attack:5
-defense:2
-movement:3
-SpecialAbilities:aim
}
class Zorak_The_Skinner{
-race:orc
-type:berserker
-role:all or nothing
-personality:brutal,noisy and chaotic
-health:8
-attack:6
-defense:2
-movement:3
-SpecialAbilities:wild anger
}
class Goldan_The_Vile{
-race:orc
-type:magician
-role:witcher
-personality:heartless, cruel and impulsive
-health:7
-manna:10
-attack:5
-defense:2
-movement:2
-SpecialAbilities:fel magic
}
class Gortona_Sewwounds{
-race:orc
-type:healer
-role:healer
-personality:wise, old and bitter
-health:7
-manna:15
-attack:4
-defense:4
-movement:2
-SpecialAbilities:vile cure
}
class Azeli{
-race:humanoid phoenix
-type:healer
-role:mysticism
-personality:brave,passionate and optimistic
-health:7
-manna:12
-attack:4
-defense:2
-movement:4
-SpecialAbilities:healing flame
}
class Shira_WhiteEdge{
-race:humanoid cat
-type:warrior
-role:swordwoman
-personality:suicidal, loud and combat-obsessed
-health:8
-attack:5
-defense:2
-movement:3
-SpecialAbilities:camouflage
}


class spectral_wolf{
-race:ghost beast
-health:5
-attack:3
-movement:4
-SpecialAbilities:ethereal bite
}
class stone_guardian{
-race:golem
-health:15
-attack:5
-movement:0
-SpecialAbilities:mace blow
}
class void_howler{
-race:pulpoid
-health:8
-attack:4
-movement:3
-SpecialAbilities:energy beam
}
class Kilian_Gladus{
-race:human
-type:warrior
-role:swordman
-personality:brave, serious and strategic
-health:10
-attack:5
-defense:3
-movement:3
-SpecialAbilities:phalanx leader
}
class Legionary{
-race:human
-type:warrior
-role:tank
-personality:quiet and observant
-health:10
-attack:5
-defense:4
-movement:2
}
class Kasano_Gladus{
-race:human
-type:magician
-role:demon summoner
-personality:strategic,serious and insensitive
-health:10
-manna:10
-attack:5
-defense:2
-movement:2
-SpecialAbilities:barrier infusion
}
class Aderit_Chantris{
-race:elf
-type:archer
-role: arcane archer
-personality:cruel and stubborn
-health:8
-manna:10
-attack:4
-defense:2
-movement:3
-SpecialAbilities:healing arrow
}
class Elven_Sword{
-race:elf
-type:berserker
-role: assassin
-personality:ruthless and bloody
-health:8
-attack:4
-defense:3
-movement:4
-SpecialAbilities:double hit
}
class Tiran_Morgoth{
-race:possessed
-type:magician
-role:witcher
-personality:charismatic and sadistic
-health:10
-manna:12
-attack:5
-defense:3
-movement:3
-SpecialAbilities:hellish breath
}


class shard_of_Aether{
-effect:attack+2
-fountain:stone_guardian,void_howler
}
class vitality_potion{
-effect:health+5
-fountain:spectral_wolf
}
class tournament_chest{
-effect:random(new weapon,new ability)
-fountain:probability(enemies or dangers)
}


class forest{
-position:random
-effect:attack+5
}
class river{
-position:random
-effect:no move
}
class mountains{
-position:random
-effect: defense+3
}
class ruins{
-position:random
-effect: manna+4
}

class ether_storm{
-position:random
-range: 3 hexagons
-effect:health-2
-duration:3 turns
-movement:1 hex/turn
}
class shadow_pit{
-position:random
-range:1 hex
-effect:health-3,no move
-duration:1 turn
-movement:N/A
}

@enduml
