@startuml
  Game "1" *-- "1" Board : contains
  Game "1" -- "1..." Character : manages
  Game "1" *-- "1" TurnManager : uses
  Character <|-- PlayersCharacter
  Character <|-- EnemiesCharacter
  Character "1" -- "0..." Consumable : has
  Character"1" *-- "1"Position:on
  TurnManager"1" --* "1"PlayersCharacter: has
  TurnManager"1" --* "1" EnemiesCharacter: has
  TurnManager"1" --* "1" SpecialEnemiesCharacter: has



 class Game {
     -board:Board
     -turnManager:TurnManager
     -character: List<Character>
     +Game()
     +startGame() : void
     +runGameLoop() : void
     +update() : void
     +getBoard() : Board
     +getCharacters() : List<Character>
 }

 class Board {
     -board:Board
     -tileSize:int
     -rows:int
     -cols:int
     -titles: HexTile[][]
     -terrain:TerrainType
     -occupant:Character
     +Board(rows: int, cols: int)
     +initializeTiles() : void
     +boardPane(board: Board)
     +render():void
     +getRow() : int
     +getCol() : int
     +getTerrain() : TerrainType
     +isOccupied() : boolean
     +getOccupant() : Character
     +setOccupant(occupant: Character) : void
 }

 class Effect{
    -valueEffect: int
    +Effect()
    +Effect(valueEffect:int)
    +getValueEffect():int
    +setValueEffect(valueEffect:int):void
    +applyEffect(character:Character):void
 }

 TerrainType<|-down- Forest
  TerrainType<|-down- River
  TerrainType<|-down- Mountains
  TerrainType<|-down- Ruins
  TerrainType"1" o-- "1"Effect:has
  TerrainType"1" --* "1"Position:has

  class TerrainType{
      -position:Position
      -effect: Effect
      +terrainType()
      +terrainType(position:Position, effect:Effect)
      +applyEffectTerrainType(character:Character, effect:Effect):void
  }
  class Forest{
  }
  class River{
  }
  class Mountains{
  }
  class Ruins{
  }

  Board"1" -- "0..."Dangers:has
  Board"1" --"1..." TerrainType:has


  Dangers <|-- ether_storm
  Dangers <|-- shadow_pit

  class Dangers{
  -position:Position
  -range: Position
  -effect:Effect
  -duration: TurnManager
  -movement:int
  }
  class ether_storm{
  }
  class shadow_pit{
  }


  class Position {
      -int: row
      -int: col
      +Position()
      +Position(row: int, col: int)
      +getRow() : int
      +getCol() : int
      +distanceTo(other: Position) : int
  }

  class TurnManager {
      -turnOrder:List<Character>
      -currentTurnIndex:void
      +TurnManager()
      +TurnManager(turnOrder: List<Character>)
      +getCurrentCharacter() : Character
      +nextTurn() : void
      +resetTurn() : void
  }

  PlayersCharacter <|-up- Kael_Draven
  PlayersCharacter <|-up- Cintya_Eaglevision
  PlayersCharacter <|-up- Jax_Blacksword
  PlayersCharacter <|-up- Lina_Fireheart
  PlayersCharacter <|-up- Alessandra_The_Brilliant
  PlayersCharacter <|-up- Sirael_The_Serious_One
  PlayersCharacter <|-down- Lyrasa_Velith
  PlayersCharacter <|-down- Xaviru_Palast
  PlayersCharacter <|-down- Heloro_Maeg
  PlayersCharacter <|-down- Lyffa_Shartis
  PlayersCharacter <|-down- Azeli
  PlayersCharacter <|-down- Shira_WhiteEdge
  PlayersCharacter <|-left- Hobgrou
  PlayersCharacter <|-left- Groshta
  PlayersCharacter <|-left- Globius
  PlayersCharacter <|-left- Hobag
  PlayersCharacter <|-left- Higlob
  PlayersCharacter <|-right- Drekker_The_Blade
  PlayersCharacter <|-right- Grisha_The_Stalker
  PlayersCharacter <|-right- Zorak_The_Skinner
  PlayersCharacter <|-right- Goldan_The_Vile
  PlayersCharacter <|-right- Gortona_Sewwounds
  PlayersCharacter <|-- SpecialEnemiesCharacter
  PlayersCharacter"1" o-up- "0...*"Consumable:has

  abstract class Character {
       -name:String
       -race: String
       -maxHealth:int
       -currentHealth:int
       -attack:int
       -movement:int
       -Position: position
       -destination:Position
       +Character()
       +Character(name: String, currentHealth: int, attack: int, defense: int, movement: int, position: Position, role: Role)
       +move(newPosition: Position) : void
       +attack(target: Character) : void
       +receiveDamage(damage: int) : void
       +addConsumable(consumable: Consumable) : void
       +isAlive() : boolean
       +getCurrentHealth() : int
       +getMaxHealth() : int
       +setCurrentHealth(currentHealth: int) : void
       +getName() : String
       +useSpecialAbility():void

   }

  class PlayersCharacter {
     -personality:String
     -defense:int
     -role:String
     -type:String
     -inventory: List<Consumable>
     +PlayersCharacter()
     +PlayersCharacter(name: String, currentHealth: int, attack: int, defense: int, movement: int, position: Position, role: String)
     +MoveAction(character: PlayersCharacter, destination: Position): void
     +execute() : void

 }
 class Kael_Draven{

 + firmGuard(): void
 + dashMovement(): void
 }

 class Cintya_Eaglevision{
 + inmobilizeEnemies(): void
 }
 class Jax_Blacksword{
 + heavyBlow(): void
 + hardHits(): void
 }
 class Lina_Fireheart{
 + hellInEarth(): void
 }
 class Alessandra_The_Brilliant{
 + healingLight(): void
 }
 class Sirael_The_Serious_One{
 + incapacitatingEdge(): void
 }
 class Lyrasa_Velith{
 + accurateShot(): void
 }
 class Xaviru_Palast{
 + magicExtension(): void
 }
 class Heloro_Maeg{
 + polarAura(): void
 }
 class Lyffa_Shartis{
 + healingBreeze(): void
 + freezingBreeze(): void
 }
class Hobgrou{
 + sharpTip(): void
 }
 class Groshta{
 + greed():void
 + steelHand(): void
 }
 class Globius{
 + meltedInShadows(): void
 }
 class Hobag{
 + drainMagic(): void
 }
 class Higlob{
 + natureHelp(): void
 }
 class Drekker_The_Blade{
 + hellishScream(): void
 }
 class Grisha_The_Stalker{
 + aim(): void
 + bulletInForehead():void
 }
 class Zorak_The_Skinner{
 + wildAnger(): void
 }
 class Goldan_The_Vile{
 + noMagicAllowed(): void
 }
 class Gortona_Sewwounds{
 + vileCure(): void
 }
 class Azeli{
 + healingFlame(): void
 + bastardFlame(): void
 }
 class Shira_WhiteEdge{
 + camouflage(): void
 + hideAndSeek(): void
 }

 EnemiesCharacter <|-down- spectral_wolf
 EnemiesCharacter <|-down- stone_guardian
 EnemiesCharacter <|-down- void_howler

 class EnemiesCharacter {
     +EnemiesCharacter()
     +EnemiesCharacter(name: String, health: int, attack: int, defense: int, movement: int, position: Position, role: Role)
 }
 class spectral_wolf{
 }
 class stone_guardian{
 }

 class void_howler{
 }
SpecialEnemiesCharacter <|-down- Kilian_Gladus
 SpecialEnemiesCharacter <|-down- Legionary
 SpecialEnemiesCharacter <|-down- Kasano_Gladus
 SpecialEnemiesCharacter <|-down- Aderit_Chantris
 SpecialEnemiesCharacter <|-down- Elven_Sword
 SpecialEnemiesCharacter <|-down- Tiran_Morgoth

 class SpecialEnemiesCharacter{
      +SpecialEnemiesCharacter()
      +SpecialEnemiesCharacter(name: String, health: int, attack: int, defense: int, movement: int, position: Position, role: Role)

 }

 class Kilian_Gladus{
 + phalanxLeader():void
 }
 class Legionary{
 + leaderProtection():void
 }
 class Kasano_Gladus{
 + barrierInfusion():void
 }
 class Aderit_Chantris{
 + healingArrow():void
 }
 class Elven_Sword{
 + doubleWhammy():void
 }
 class Tiran_Morgoth{
 + hellishBreath():void
 }

 Consumable"1" *-- "1"Effect:has
 Consumable <|-down- shard_of_Aether
 Consumable <|-down- vitality_potion
 Consumable <|-down- tournament_chest

 class Consumable {
     -name:String
     -descriptions:String
     -effect: Effect
     -fountain: List<EnemiesCharacter>
     +Consumable()
     +Consumable(name: String, description: String, effect: Effect, fountain: List<EnemiesCharacter>)
     +getName() : String
     +getDescription() : String
     +getFountain(): List<EnemiesCharacter>
     +use(user: PlayersCharacter) : void

 }
 class shard_of_Aether{
 }
 class vitality_potion{
 }
 class tournament_chest{
 }
@enduml
